<svg xmlns="http://www.w3.org/2000/svg" width="28.4" height="25.299" xmlns:v="https://vecta.io/nano"><path d="M21.584 18.199c2.55 0 4.616-2.066 4.616-4.615 0-2.409-1.846-4.387-4.2-4.598v-.188a6.6 6.6 0 0 0-6.6-6.6c-3.284 0-6.008 2.398-6.516 5.539H7.431a5.23 5.23 0 1 0 0 10.462h14.153m0 2.2H7.431A7.44 7.44 0 0 1 0 12.968 7.44 7.44 0 0 1 7.224 5.54c.523-1.309 1.359-2.487 2.444-3.419A8.8 8.8 0 0 1 15.4-.001c4.318 0 7.919 3.125 8.66 7.233a6.81 6.81 0 0 1 2.542 1.74c1.159 1.261 1.798 2.899 1.798 4.613 0 3.758-3.058 6.815-6.816 6.815z" fill="#fff"/><g fill="none" stroke-linecap="round"><path stroke="#006454" stroke-width="6.2" d="M14.7 11.199v11"/><g stroke="#fff" stroke-width="2.2"><path d="M14.7 11.199v11"/><path d="M11.321 14.578l3.379-3.379 3.379 3.379" stroke-linejoin="round"/></g></g></svg>