<svg xmlns="http://www.w3.org/2000/svg" width="11.398" height="11.386" viewBox="0 0 11.398 11.386">
  <g id="Group_34" data-name="Group 34" transform="translate(81.902 -26.899)">
    <path id="Path_13" data-name="Path 13" d="M-79.306,30.333h2.154a.285.285,0,0,1,.324.324q0,.5,0,1a.282.282,0,0,1-.317.317h-4.416a.36.36,0,0,1-.216-.047.273.273,0,0,1-.124-.235c0-.163,0-.326,0-.488q0-1.993,0-3.986a.3.3,0,0,1,.117-.265.241.241,0,0,1,.147-.05h1.1a.265.265,0,0,1,.265.228.752.752,0,0,1,.008.118q0,.782,0,1.564a.149.149,0,0,0,.009.081c.03-.007.045-.033.064-.053a5.776,5.776,0,0,1,1.1-.9,5.591,5.591,0,0,1,1.993-.772,6.251,6.251,0,0,1,.779-.082,5.429,5.429,0,0,1,1.633.176,5.4,5.4,0,0,1,1.529.653,5.536,5.536,0,0,1,1.075.868,5.511,5.511,0,0,1,1.5,2.983,5.407,5.407,0,0,1,.076,1.064,5.646,5.646,0,0,1-.507,2.182,5.6,5.6,0,0,1-1.148,1.647,5.5,5.5,0,0,1-1.745,1.177,5.35,5.35,0,0,1-1.387.392,5.643,5.643,0,0,1-1.053.055A5.556,5.556,0,0,1-79.4,37.214q-.237-.173-.457-.368a.272.272,0,0,1-.027-.414c.252-.261.509-.518.769-.771a.27.27,0,0,1,.383,0,4.048,4.048,0,0,0,1.172.714,3.965,3.965,0,0,0,1.147.259,3.917,3.917,0,0,0,1.592-.2,3.981,3.981,0,0,0,1.332-.774,3.916,3.916,0,0,0,1.038-1.445A3.846,3.846,0,0,0-72.156,33a3.868,3.868,0,0,0-.41-2.1,3.9,3.9,0,0,0-2.626-2.075,3.835,3.835,0,0,0-1.983.038A3.947,3.947,0,0,0-79.036,30,2.974,2.974,0,0,0-79.306,30.333Z" transform="translate(0 0)" fill="#fff"/>
  </g>
</svg>
