<svg xmlns="http://www.w3.org/2000/svg" width="18.223" height="18.224" xmlns:v="https://vecta.io/nano"><g transform="matrix(.707107 .707107 -.707107 .707107 -1607.03 -4843.297)"><path d="M4573.456 2279.6h1a2.4 2.4 0 0 1 2.4 2.4v.8a.6.6 0 0 1-.6.6h-4.6a.6.6 0 0 1-.6-.6v-.8a2.4 2.4 0 0 1 2.4-2.4z" fill="none" stroke="#fff" stroke-linejoin="round" stroke-width="1.2"/><path d="M4573.996 2295.917l2.26-2.708v-9.009h-4.6v8.998l2.339 2.718m.014 1.856l-3.554-4.129V2283h7v10.644l-3.446 4.129z" fill="#fff"/><path fill="none" stroke="#fff" stroke-linecap="round" stroke-width="1.2" d="M4571.5 2293.5h5"/></g></svg>