<svg xmlns="http://www.w3.org/2000/svg" width="24" height="15" xmlns:v="https://vecta.io/nano"><defs><clipPath id="A"><rect width="24" height="15" rx="1" fill="#d8d8d8"/></clipPath></defs><rect width="24" height="15" rx="1" fill="#d8d8d8"/><g clip-path="url(#A)"><path d="M-1 17h25.5V0H-1z" fill="#ec1e24"/><path d="M-1 8h13V0H-1z" fill="#2b2f84"/><g fill="#fefefe"><path d="M5.249 5.851a1.6 1.6 0 1 0 0-3.2 1.6 1.6 0 1 0 0 3.2"/><path d="M5.623 2.449l-.375-1.4-.376 1.4c.248-.052.503-.052.751 0m-.95.054L3.648 1.478l.376 1.4a1.83 1.83 0 0 1 .649-.378m-.796.524l-1.4-.375 1.027 1.027a1.83 1.83 0 0 1 .373-.652m-.429.85l-1.4.375 1.4.376c-.052-.248-.052-.503 0-.751m.053.951L2.476 5.85l1.4-.376a1.82 1.82 0 0 1-.375-.649m.522.796l-.375 1.4 1.027-1.027a1.83 1.83 0 0 1-.652-.373m.85.425l.375 1.4.376-1.4c-.248.052-.503.052-.751 0m.95-.05l1.025 1.021-.376-1.4a1.83 1.83 0 0 1-.649.379m.797-.522l1.4.375-1.027-1.027a1.83 1.83 0 0 1-.373.652m.425-.85l1.4-.375-1.4-.376c.052.248.052.503 0 .751m-.05-.95l1.021-1.025-1.4.376a1.83 1.83 0 0 1 .379.649m-.522-.796l.375-1.4-1.027 1.027a1.83 1.83 0 0 1 .652.373"/></g></g></svg>