<svg xmlns="http://www.w3.org/2000/svg" xmlns:xlink="http://www.w3.org/1999/xlink" width="24" height="15" xmlns:v="https://vecta.io/nano"><defs><clipPath id="A"><rect width="24" height="15" rx="1" fill="#d8d8d8"/></clipPath><path id="B" d="M4.278.695l.24.188-.092.3.241-.188.24.186-.092-.298.241-.188h-.3l-.089-.3-.089.3z"/></defs><g clip-path="url(#A)"><path d="M0,15H28V0H0Z" fill="#fff"/><g fill="#b22234"><path d="M0 1.184h28V0H0zm0 2.368h28V2.368H0zm0 2.369h28V4.737H0zm0 2.368h28V7.105H0zm0 1.974h28V9.079H0zm0 2.368h28v-1.184H0zM0 15h28v-1.184H0z"/></g><path d="M0,7.895H11.278V0H0Z" fill="#3c3b6e"/><g fill="#fff"><path d="M.389.695l.24.188-.092.3.241-.188.24.186L.926.883l.241-.188h-.3l-.089-.3-.089.3zm1.944 0l.24.188-.092.3.241-.188.24.186L2.87.883l.241-.188h-.3l-.089-.3-.089.3z"/><use xlink:href="#B"/><path d="M6.222.695l.24.188-.092.3.241-.188.24.186-.092-.298L7 .695h-.3l-.089-.3-.089.3zm1.556 0l.24.188-.092.3.241-.188.24.186-.092-.298.241-.188h-.3l-.089-.3-.089.3zm1.944 0l.24.188-.092.3.241-.188.24.186-.092-.298.241-.188h-.3l-.089-.3-.089.3zm-8.166.789l.24.188-.092.3.241-.188.24.186-.092-.298.241-.188h-.3l-.089-.3-.089.3zm1.944 0l.24.188-.092.3.241-.188.24.186-.092-.298.241-.188h-.3l-.089-.3-.089.3zm1.556 0l.24.188-.092.3.241-.188.24.186-.092-.298.241-.188h-.3l-.089-.3-.089.3zm1.944 0l.24.188-.092.3.241-.188.24.186-.092-.298.241-.188h-.3l-.089-.3-.089.3zm1.944 0l.24.188-.092.3.241-.188.24.186-.092-.298.241-.188h-.3l-.089-.3-.089.3zm-8.555.79l.24.188-.092.3.241-.188.24.186-.092-.298.241-.188h-.3l-.089-.3-.089.3zm1.944 0l.24.188-.092.3.241-.188.24.186-.092-.298.241-.188h-.3l-.089-.3-.089.3zm1.945 0l.24.188-.092.3.241-.188.24.186-.092-.298.241-.188h-.3l-.089-.3-.089.3zm1.944 0l.24.188-.092.3.241-.188.24.186-.092-.298L7 2.274h-.3l-.089-.3-.089.3zm1.556 0l.24.188-.092.3.241-.188.24.186-.092-.298.241-.188h-.3l-.089-.3-.089.3zm1.944 0l.24.188-.092.3.241-.188.24.186-.092-.298.241-.188h-.3l-.089-.3-.089.3zm-8.166.789l.24.188-.092.3.241-.188.24.186-.092-.298.241-.188h-.3l-.089-.3-.089.3zm1.944 0l.24.188-.092.3.241-.188.24.186-.092-.298.241-.188h-.3l-.089-.3-.089.3zm1.556 0l.24.188-.092.3.241-.188.24.186-.092-.298.241-.188h-.3l-.089-.3-.089.3zm1.944 0l.24.188-.092.3.241-.188.24.186-.092-.298.241-.188h-.3l-.089-.3-.089.3zm1.944 0l.24.188-.092.3.241-.188.24.186-.092-.298.241-.188h-.3l-.089-.3-.089.3zm-8.555.79l.24.188-.092.3.241-.188.24.186-.092-.298.241-.188h-.3l-.089-.3-.089.3zm1.944 0l.24.188-.092.3.241-.188.24.186-.092-.298.241-.188h-.3l-.089-.3-.089.3zm1.945 0l.24.188-.092.3.241-.188.24.186-.092-.298.241-.188h-.3l-.089-.3-.089.3zm1.944 0l.24.188-.092.3.241-.188.24.186-.092-.298L7 3.853h-.3l-.089-.3-.089.3zm1.945 0l.24.188-.092.3.241-.188.24.186-.092-.298.241-.188h-.3l-.089-.3-.089.3z"/><path d="M9.722 3.853l.24.188-.092.3.241-.188.24.186-.092-.298.241-.188h-.3l-.089-.3-.089.3zM.389 5.432l.24.188-.092.3.241-.188.24.186-.092-.298.241-.188h-.3l-.089-.3-.089.3zm1.944 0l.24.188-.092.3.241-.188.24.186-.092-.298.241-.188h-.3l-.089-.3-.089.3zm1.945 0l.24.188-.092.3.241-.188.24.186-.092-.298.241-.188h-.3l-.089-.3-.089.3zm1.944 0l.24.188-.092.3.241-.188.24.186-.092-.298L7 5.432h-.3l-.089-.3-.089.3zm1.945 0l.24.188-.092.3.241-.188.24.186-.092-.298.241-.188h-.3l-.089-.3-.089.3zm1.555 0l.24.188-.092.3.241-.188.24.186-.092-.298.241-.188h-.3l-.089-.3-.089.3zM.389 7.011l.24.188-.092.3.241-.188.24.186-.092-.298.241-.188h-.3l-.089-.3-.089.3z"/><path d="M2.333 7.011l.24.188-.092.3.241-.188.24.186-.092-.298.241-.188h-.3l-.089-.3-.089.3zm1.945 0l.24.188-.092.3.241-.188.24.186-.092-.298.241-.188h-.3l-.089-.3-.089.3zm1.944 0l.24.188-.092.3.241-.188.24.186-.092-.298L7 7.011h-.3l-.089-.3-.089.3zm1.945 0l.24.188-.092.3.241-.188.24.186-.092-.298.241-.188h-.3l-.089-.3-.089.3zm1.555 0l.24.188-.092.3.241-.188.24.186-.092-.298.241-.188h-.3l-.089-.3-.089.3zM1.556 4.642l.24.188-.092.3.241-.188.24.186-.092-.298.241-.188h-.3l-.089-.3-.089.3zm1.944 0l.24.188-.092.3.241-.188.24.186-.092-.298.241-.188h-.3l-.089-.3-.089.3zm1.556 0l.24.188-.092.3.241-.188.24.186-.092-.298.241-.188h-.3l-.089-.3-.089.3z"/><path d="M7 4.642l.24.188-.092.3.241-.188.24.186-.092-.298.241-.188h-.3l-.089-.3-.089.3zm1.944 0l.24.188-.092.3.241-.188.24.186-.092-.298.241-.188h-.3l-.089-.3-.089.3zM1.556 6.221l.24.188-.092.3.241-.188.24.186-.092-.298.241-.188h-.3l-.089-.3-.089.3zm1.944 0l.24.188-.092.3.241-.188.24.186-.092-.298.241-.188h-.3l-.089-.3-.089.3zm1.556 0l.24.188-.092.3.241-.188.24.186-.092-.298.241-.188h-.3l-.089-.3-.089.3zm1.944 0l.24.188-.092.3.241-.188.24.186-.092-.298.241-.188h-.3l-.089-.3-.089.3zm1.944 0l.24.188-.092.3.241-.188.24.186-.092-.298.241-.188h-.3l-.089-.3-.089.3z"/></g></g></svg>