<svg xmlns="http://www.w3.org/2000/svg" width="62.832" height="53" viewBox="0 0 62.832 53">
  <g id="cloud-computing" transform="translate(0.001 0)">
    <path id="Path_7761" data-name="Path 7761" d="M50.742,15.82a19.658,19.658,0,0,0-38.556-.012,13.761,13.761,0,0,0,1.585,27.431H23.6a1.966,1.966,0,1,0,0-3.932H13.771a9.829,9.829,0,1,1,.116-19.658A1.965,1.965,0,0,0,15.841,17.9a15.727,15.727,0,0,1,31.245,0,2.084,2.084,0,0,0,2.07,1.749,9.829,9.829,0,1,1,0,19.658H39.327a1.966,1.966,0,0,0,0,3.932h9.829A13.761,13.761,0,0,0,50.742,15.82Zm0,0" transform="translate(0 0)" fill="#4db369"/>
    <path id="Path_7762" data-name="Path 7762" d="M189.5,203.852a1.966,1.966,0,0,0,2.828-2.731l-.048-.048-8.337-8.339a1.966,1.966,0,0,0-2.78,0l0,0-8.337,8.339a1.966,1.966,0,0,0,2.731,2.828l.048-.048,4.984-4.985v24.742a1.966,1.966,0,1,0,3.931,0V198.866Zm0,0" transform="translate(-151.089 -172.574)" fill="#4db369"/>
  </g>
</svg>
