<svg id="ic_Invisible_input_off" xmlns="http://www.w3.org/2000/svg" width="22" height="22" viewBox="0 0 22 22">
  <g id="icon_Invisible">
    <path id="Shape" d="M19.722,1.583,18.593.939c.025-.044.052-.086.076-.13a.547.547,0,0,0-.228-.744A.559.559,0,0,0,17.69.29,8.72,8.72,0,0,1,10,4.852,8.721,8.721,0,0,1,2.31.291.559.559,0,0,0,1.558.065.546.546,0,0,0,1.33.809c.024.044.052.086.076.13L.278,1.583a.546.546,0,0,0-.2.75.559.559,0,0,0,.759.2L2,1.87A9.76,9.76,0,0,0,2.88,2.931L1.9,3.9a.545.545,0,0,0,0,.777.56.56,0,0,0,.786,0l1.012-1a9.8,9.8,0,0,0,1.106.8L4.067,5.731a.546.546,0,0,0,.2.75.559.559,0,0,0,.759-.2L5.775,5a9.851,9.851,0,0,0,1.259.49L6.641,6.941a.549.549,0,0,0,.393.673.564.564,0,0,0,.144.019.555.555,0,0,0,.536-.407l.4-1.458a9.926,9.926,0,0,0,1.335.165V7.451a.556.556,0,0,0,1.111,0V5.932a9.926,9.926,0,0,0,1.335-.165l.4,1.458a.555.555,0,0,0,.536.407.562.562,0,0,0,.144-.019.549.549,0,0,0,.393-.673l-.392-1.448A9.877,9.877,0,0,0,14.226,5l.746,1.278a.559.559,0,0,0,.759.2.546.546,0,0,0,.2-.75L15.2,4.476a9.822,9.822,0,0,0,1.106-.8l1.011,1a.56.56,0,0,0,.786,0,.545.545,0,0,0,0-.777l-.984-.973A9.779,9.779,0,0,0,18,1.87l1.165.665a.559.559,0,0,0,.759-.2A.546.546,0,0,0,19.722,1.583Z" transform="translate(1 7)" fill="#33b3ac" stroke="#33b3ac" stroke-miterlimit="10" stroke-width="0.7"/>
  </g>
</svg>
