<svg xmlns="http://www.w3.org/2000/svg" width="22" height="22" xmlns:v="https://vecta.io/nano"><path d="M10.772 16.106c-2.108-.105-3.806-1.766-3.957-3.871a4.11 4.11 0 0 1 1.753-3.621c-2.049.513-3.98 1.418-5.685 2.665a1.2 1.2 0 0 1-1.577-.157c-.224-.244-.333-.572-.299-.901a1.16 1.16 0 0 1 .477-.821A16.96 16.96 0 0 1 11 6a16.96 16.96 0 0 1 9.516 3.4 1.16 1.16 0 0 1 .177 1.725 1.2 1.2 0 0 1-1.577.157 16.36 16.36 0 0 0-5.684-2.665c1.1.767 1.757 2.023 1.76 3.364A4.17 4.17 0 0 1 11 16.112q-.113 0-.228-.006z" fill="#33b3ac"/></svg>