<svg xmlns="http://www.w3.org/2000/svg" width="18.39" height="19.422" viewBox="0 0 18.39 19.422">
  <g id="Fill_14_export" data-name="Fill 14_export" transform="translate(0.25 0.25)">
    <path id="Fill_14" data-name="Fill 14" d="M14.924,18.922H2.966A2.969,2.969,0,0,1,0,15.956V4.661A2.545,2.545,0,0,1,2.543,2.119H4.161V.848a.848.848,0,1,1,1.7,0V2.119h6.178V.848a.848.848,0,1,1,1.7,0V2.119h1.618A2.545,2.545,0,0,1,17.89,4.661v11.3A2.969,2.969,0,0,1,14.924,18.922ZM1.695,7.556v8.4a1.273,1.273,0,0,0,1.272,1.271H14.924A1.273,1.273,0,0,0,16.2,15.956v-8.4Zm.848-3.742a.849.849,0,0,0-.848.848v1.2H16.2v-1.2a.849.849,0,0,0-.848-.848H13.729v.463a.848.848,0,0,1-1.7,0V3.813H5.856v.463a.848.848,0,0,1-1.7,0V3.813ZM13.331,15.432a1.248,1.248,0,1,1,1.248-1.247A1.249,1.249,0,0,1,13.331,15.432Zm-4.386,0a1.248,1.248,0,1,1,1.248-1.247A1.249,1.249,0,0,1,8.945,15.432Zm-4.384,0a1.248,1.248,0,1,1,1.248-1.247A1.249,1.249,0,0,1,4.561,15.432Zm8.77-3.729a1.248,1.248,0,1,1,1.248-1.248A1.25,1.25,0,0,1,13.331,11.7Zm-4.386,0a1.248,1.248,0,1,1,1.248-1.248A1.249,1.249,0,0,1,8.945,11.7Zm-4.384,0a1.248,1.248,0,1,1,1.248-1.248A1.249,1.249,0,0,1,4.561,11.7Z" transform="translate(0)" fill="#cdcdcd" stroke="#f4f4f4" stroke-miterlimit="10" stroke-width="0.5"/>
  </g>
</svg>
