<svg xmlns="http://www.w3.org/2000/svg" width="14.864" height="16.991" fill="#4db369" xmlns:v="https://vecta.io/nano"><path d="M6.363 12.719v-.591c0-.3.132-.457.426-.467h1.278a.41.41 0 0 1 .434.473q0 .6 0 1.2c0 .291-.12.448-.405.462a11.08 11.08 0 0 1-1.364 0c-.104-.005-.201-.052-.27-.129a.39.39 0 0 1-.098-.283v-.329-.329zM.002 9.55q0-2.918 0-5.837a1.59 1.59 0 0 1 1.6-1.6h1.454c.127 0 .128 0 .128-.131q0-.766 0-1.532a.4.4 0 0 1 .446-.451h.2a.4.4 0 0 1 .421.426v1.561c0 .1.024.129.125.129q3.054 0 6.108 0c.1 0 .127-.03.126-.127V.437a.41.41 0 0 1 .118-.323.4.4 0 0 1 .324-.115h.2a.4.4 0 0 1 .427.424v1.561c0 .129 0 .129.129.129h1.493a1.59 1.59 0 0 1 1.119.493c.292.307.451.717.44 1.141q0 1.876 0 3.752 0 3.917 0 7.834a1.6 1.6 0 0 1-.542 1.248c-.244.221-.552.358-.88.389l-.455.016H1.672c-.339.011-.672-.082-.956-.268-.441-.275-.71-.758-.71-1.278v-4.828q0-.533 0-1.067zm7.43-3.168H1.217c-.143 0-.143 0-.143.147v.019q0 4.106 0 8.212v.611c-.009.235.143.447.369.513a.66.66 0 0 0 .23.019h11.518c.077.006.155-.001.23-.021.241-.07.396-.303.367-.552q0-3.883 0-7.766V6.488c0-.078-.024-.116-.106-.108h-.1zm0-1.086h6.233c.069 0 .126 0 .126-.1V3.703a.51.51 0 0 0-.449-.5c-.073-.011-.148-.016-.222-.015H1.668a.55.55 0 0 0-.6.6v1.386c0 .1.028.128.127.128q3.121-.008 6.238-.006zm4.251 7.438v.64a.4.4 0 0 1-.368.424c-.151.016-.303.02-.455.011-.32 0-.64.02-.959-.014a.39.39 0 0 1-.354-.385q-.008-.674 0-1.347c.007-.188.142-.347.326-.384.057-.012.115-.018.173-.019h1.144a.46.46 0 0 1 .429.195.42.42 0 0 1 .064.23v.649zm-8.501.004q0-.3 0-.6c0-.295.131-.46.423-.471.448-.023.898-.02 1.346.009.104.005.201.052.269.129s.104.179.098.283v1.25a.41.41 0 0 1-.413.463 11.6 11.6 0 0 1-1.375-.008c-.201-.014-.354-.185-.348-.386v-.669z"/><path d="M7.431 10.613h-.659a.39.39 0 0 1-.286-.11c-.076-.074-.12-.176-.12-.282q-.009-.663 0-1.327a.39.39 0 0 1 .4-.408 13.34 13.34 0 0 1 1.374.007.37.37 0 0 1 .261.115c.068.072.104.168.101.267q.01.678 0 1.356a.4.4 0 0 1-.408.383h-.659zm3.185.001h-.668a.4.4 0 0 1-.4-.391q-.007-.673 0-1.346c.003-.2.156-.366.355-.385a.97.97 0 0 1 .125-.012h1.182c.13-.015.259.03.351.122s.137.222.122.351v1.211a.43.43 0 0 1-.46.454c-.2-.015-.407 0-.61 0zm-6.365.001h-.659a.4.4 0 0 1-.41-.411q0-.654 0-1.307a.39.39 0 0 1 .363-.4.92.92 0 0 1 .115-.011h1.191a.43.43 0 0 1 .467.473v1.211c.006.122-.04.241-.126.327s-.205.133-.326.127c-.205-.015-.413 0-.62 0z"/></svg>