<svg xmlns="http://www.w3.org/2000/svg" width="20.3" height="21.981" viewBox="0 0 20.3 21.981">
  <g id="编组_2" data-name="编组 2" transform="translate(-4.85 -3.85)">
    <g id="编组" transform="translate(6 5)">
      <path id="Stroke_1" data-name="Stroke 1" d="M12.412,12.472v.709A1.814,1.814,0,0,1,10.6,15H1.81A1.814,1.814,0,0,1,0,13.182V1.818A1.813,1.813,0,0,1,1.81,0H2.836" transform="translate(0 4.681)" fill="none" stroke="#4db369" stroke-miterlimit="10" stroke-width="2.3"/>
      <path id="Stroke_3" data-name="Stroke 3" d="M11.32,15H1.68A1.671,1.671,0,0,1,0,13.338V1.662A1.671,1.671,0,0,1,1.68,0H11.32A1.671,1.671,0,0,1,13,1.662V13.338A1.672,1.672,0,0,1,11.32,15Z" transform="translate(5)" fill="none" stroke="#4db369" stroke-miterlimit="10" stroke-width="2.3"/>
      <path id="Stroke_5" data-name="Stroke 5" d="M0,.36H5" transform="translate(9 5)" fill="none" stroke="#4db369" stroke-linecap="round" stroke-miterlimit="10" stroke-width="1.2"/>
      <path id="Stroke_7" data-name="Stroke 7" d="M0,.36H5" transform="translate(9 7.5)" fill="none" stroke="#4db369" stroke-linecap="round" stroke-miterlimit="10" stroke-width="1.2"/>
      <path id="Stroke_9" data-name="Stroke 9" d="M0,.36H5" transform="translate(9 10)" fill="none" stroke="#4db369" stroke-linecap="round" stroke-miterlimit="10" stroke-width="1.2"/>
    </g>
  </g>
</svg>
