<svg xmlns="http://www.w3.org/2000/svg" width="62.832" height="53" fill="#08886e" xmlns:v="https://vecta.io/nano"><path d="M50.743 15.82A19.66 19.66 0 0 0 31.47.003a19.66 19.66 0 0 0-19.283 15.805C4.942 16.645-.392 22.99.029 30.272s6.45 12.97 13.743 12.967h9.829c1.086 0 1.966-.88 1.966-1.966s-.88-1.966-1.966-1.966h-9.829a9.83 9.83 0 0 1-8.425-14.794 9.83 9.83 0 0 1 8.541-4.864c1.002 0 1.844-.753 1.954-1.749a15.73 15.73 0 0 1 31.245 0c.165 1.013 1.043 1.755 2.07 1.749a9.83 9.83 0 0 1 9.829 9.829 9.83 9.83 0 0 1-9.829 9.829h-9.829c-1.086 0-1.966.88-1.966 1.966s.88 1.966 1.966 1.966h9.829c7.256-.049 13.227-5.722 13.646-12.966s-4.858-13.568-12.06-14.453zM38.412 31.278c.758.758 1.984.769 2.756.024s.804-1.971.072-2.755l-.048-.048-8.337-8.339c-.768-.768-2.012-.768-2.78 0h0l-8.337 8.339c-.758.758-.769 1.984-.024 2.756s1.971.804 2.755.072l.048-.048 4.984-4.985v24.742c-.016.713.355 1.378.97 1.74s1.377.361 1.992 0 .986-1.027.97-1.74V26.292zm0 0"/></svg>