<svg xmlns="http://www.w3.org/2000/svg" width="40.447" height="25.5" xmlns:v="https://vecta.io/nano"><defs><clipPath id="A"><path d="M0,0H22.447V22.075H0Z" fill="none"/></clipPath><clipPath id="B"><path d="M0,22.075H22.447V0H0Z" fill="none"/></clipPath></defs><g transform="translate(18 1.502)"><g clip-path="url(#A)"><path d="M20.821 22.075H1.626A1.63 1.63 0 0 1 0 20.45v-16a1.63 1.63 0 0 1 1.626-1.63h.786v-.645C2.412.974 3.386 0 4.588-.001s2.175.974 2.175 2.175v.645h2.4v-.645C9.188.992 10.155.046 11.338.046s2.15.946 2.176 2.129v.645h2.173v-.645c0-1.201.974-2.175 2.176-2.176s2.175.974 2.175 2.176v.645h.786a1.63 1.63 0 0 1 1.626 1.626v16a1.63 1.63 0 0 1-1.629 1.629zM1.2 9.1v11.35a.43.43 0 0 0 .428.427h19.193a.43.43 0 0 0 .427-.427V9.1zm.428-5.079c-.235.003-.425.192-.428.427V7.9h20.048V4.446c-.003-.234-.193-.424-.427-.427h-.786v.644c0 1.201-.974 2.175-2.175 2.175s-2.175-.974-2.175-2.175v-.644h-2.172v.644c-.025 1.183-.992 2.129-2.175 2.129s-2.15-.946-2.176-2.129v-.644h-2.4v.644c0 1.201-.974 2.175-2.175 2.175S2.41 5.864 2.41 4.663v-.644zM17.859 1.2c-.539.001-.976.438-.976.977v2.487c.017.527.449.946.977.946s.96-.419.977-.946V2.175a.98.98 0 0 0-.977-.975zm-6.522 0a.98.98 0 0 0-.977.977v2.487c-.011.356.172.691.479.872s.688.182.995 0 .49-.516.479-.872V2.175c-.001-.539-.438-.975-.977-.975zm-6.749 0a.98.98 0 0 0-.977.977v2.487c0 .539.437.976.976.976s.976-.437.976-.976V2.175c-.001-.538-.438-.974-.976-.975z" fill="#217d66"/></g><g clip-path="url(#B)"><path d="M20.017 19.661H2.394v-9.218h17.623v9.217zm-4.038-4.009v2.81h2.839v-2.81zm-4.173 0v2.81h2.975v-2.81zm-4.176 0v2.81h2.976v-2.81zm-4.037 0v2.81H6.43v-2.81zm12.386-4.009v2.81h2.839v-2.81zm-4.175 0v2.81h2.975v-2.81zm-4.176 0v2.81h2.977v-2.81zm-4.034 0v2.81H6.43v-2.81z" fill="#217d66"/></g></g><path d="M1 1v23.5" fill="none" stroke="#05846a" stroke-linecap="square" stroke-miterlimit="10" stroke-width="2"/></svg>