<svg xmlns="http://www.w3.org/2000/svg" width="21.537" height="12.838" xmlns:v="https://vecta.io/nano"><path d="M10.768 0C6.653 0 2.922 2.251.168 5.908c-.225.302-.225.716 0 1.018 2.754 3.661 6.485 5.912 10.6 5.912s7.846-2.251 10.6-5.908c.225-.302.225-.716 0-1.018C18.615 2.251 14.883 0 10.768 0zm.3 10.939a4.53 4.53 0 0 1-3.499-7.724 4.53 4.53 0 0 1 7.724 3.499c-.15 2.27-1.959 4.077-4.229 4.225zm-.137-2.088a2.44 2.44 0 0 1-1.892-4.155A2.44 2.44 0 0 1 13.2 6.575c-.077 1.222-1.051 2.197-2.273 2.276z" fill="#f54e44"/></svg>