<svg xmlns="http://www.w3.org/2000/svg" viewBox="0 0 21.6 16.2" fill="#acacac" xmlns:v="https://vecta.io/nano"><path d="M10.8 1.798c-5.6 0-10.5 5.8-10.7 6-.1.2-.1.4 0 .6 1.3 1.5 2.9 2.8 4.6 3.9l2.8-2.8c-.8-1.8.1-3.9 1.9-4.7.9-.4 1.9-.4 2.8 0l2.3-2.3c-1.2-.5-2.4-.7-3.7-.7zM21.497 7.8c-1.4-1.9-3.2-3.4-5.2-4.6l2.4-2.4c.2-.2.2-.5 0-.6-.2-.2-.5-.2-.6 0l-15.3 15.2c-.1.2-.1.5 0 .6s.2.1.3.1.2 0 .3-.1l2.8-2.8a11.57 11.57 0 0 0 4.5 1.2c5.5 0 10.5-5.8 10.7-6a.47.47 0 0 0 .1-.6zm-10.7 3.9c-.8 0-1.6-.3-2.2-.8l5-5c1.2 1.6 1 3.8-.6 5-.6.5-1.4.8-2.2.8h0z"/></svg>