<svg xmlns="http://www.w3.org/2000/svg" width="21.568" height="16.176" fill="#f54e44" xmlns:v="https://vecta.io/nano"><path d="M10.784 1.798c-5.537 0-10.47 5.755-10.678 6a.45.45 0 0 0 0 .581 22.49 22.49 0 0 0 4.553 3.929l2.816-2.816c-.573-1.348-.27-2.91.766-3.946s2.597-1.339 3.946-.766l2.316-2.316c-1.192-.435-2.45-.661-3.719-.666zm10.704 6.034c-1.398-1.882-3.181-3.444-5.23-4.582L18.741.767a.45.45 0 0 0 0-.635.45.45 0 0 0-.635 0L2.828 15.409a.45.45 0 0 0 0 .635c.084.085.198.132.317.132a.45.45 0 0 0 .318-.131l2.817-2.817a10.35 10.35 0 0 0 4.5 1.151c5.537 0 10.47-5.755 10.678-6a.45.45 0 0 0 .03-.547zm-10.7 3.851a3.56 3.56 0 0 1-2.193-.767L13.612 5.9a3.58 3.58 0 0 1 .404 3.782c-.602 1.234-1.859 2.013-3.232 2.005z"/></svg>