<svg xmlns="http://www.w3.org/2000/svg" width="32.269" height="32.127" fill="#0a896d" xmlns:v="https://vecta.io/nano"><path d="M14.74 14.74H0V0h14.74v14.74zM3.408 3.408v7.924h7.924V3.408zm2.407 5.517h3.11v-3.11h-3.11zm8.925 23.202H0v-14.74h14.74v14.74zM3.408 20.795v7.924h7.924v-7.924zm2.407 5.517h3.11v-3.11h-3.11zM32.269 14.74h-14.74V0h14.74v14.74zM20.937 3.408v7.924h7.924V3.408zm2.407 5.517h3.11v-3.11h-3.11zm5.994 23.202h2.871v-3.11h-2.871zm-5.875 0h2.871v-3.11h-2.871zm-5.934-14.74v14.74h3.11v-8.52h2.824v2.7h8.746v-8.891h-2.87v3.081h-3.11v-3.081h-5.59v-.029z"/></svg>